<?xml version="1.0" encoding="utf-8"?>
<!DOCTYPE svg PUBLIC "-//W3C//DTD SVG 1.0//EN" "http://www.w3.org/TR/2001/REC-SVG-20010904/DTD/svg10.dtd">
<svg version="1.0" xmlns="http://www.w3.org/2000/svg" width="633px" height="418px" viewBox="0 0 633 418" preserveAspectRatio="xMidYMid meet">
 <g fill="#fbfbfb">
  <path d="M0 209 l0 -209 316.50 0 316.50 0 0 209 0 209 -316.50 0 -316.50 0 0 -209z m440.15 126.80 c3.75 -0.90 6.55 -2.80 7.95 -5.45 1.15 -2.10 1.15 -2.20 1.30 -26.80 0.15 -19.95 0.05 -24.80 -0.50 -25.10 -0.75 -0.50 -4.95 -0.60 -6.10 -0.15 -0.70 0.25 -0.80 2.95 -0.80 24.95 0 28.35 0.30 26.60 -4.50 27.15 -2.70 0.35 -2.75 0.40 -2.90 2.05 -0.40 4.15 0.30 4.60 5.55 3.35z m-172.75 -19.80 c7.75 -2.75 12.75 -9.90 12.80 -18.50 0 -4.60 -1.05 -7.95 -3.70 -11.50 -6.65 -8.90 -17.95 -10.10 -25.05 -2.60 -1.95 2.05 -2 2.10 -0.35 0.75 2.65 -2.25 5 -2.90 10.40 -2.90 4.15 0 5.10 0.15 7.55 1.35 5.10 2.55 7.45 7.25 7.45 15.05 0 5.50 -1.05 9.15 -3.40 11.90 -2.85 3.30 -5 4.15 -11.35 4.35 -5.35 0.20 -5.60 0.15 -8.50 -1.35 l-3 -1.55 2.20 1.95 c4.35 3.85 9.60 4.90 14.95 3.05z m47.60 -0.05 c7.50 -2.80 12.40 -9.60 12.90 -17.80 0.25 -4.35 -0.65 -7.40 -3.40 -11.55 -7.05 -10.55 -22.75 -10.90 -30.20 -0.65 -3.90 5.40 -4.85 11.55 -2.80 17.85 3.40 10.25 14 15.75 23.50 12.15z m166.90 0.25 c1.40 -0.45 3.60 -1.70 4.85 -2.75 1.70 -1.40 2.85 -1.95 4.05 -1.95 1.60 0 1.65 0.05 1.80 2.40 l0.15 2.35 3.65 0.15 3.60 0.15 -0.10 -19.15 -0.15 -19.15 -2.45 -0.15 c-4.20 -0.25 -4.80 0.05 -4.80 2.65 0 2.25 0 2.25 -1.75 2.25 -1.20 0 -2.40 -0.50 -4 -1.70 -2.45 -1.90 -6.60 -3.30 -9.70 -3.30 -5.70 0 -12.75 5.30 -15.05 11.30 -1.60 4.10 -1.90 10.65 -0.75 14.25 2.10 6.40 6.50 10.90 12.40 12.70 2.85 0.90 5.25 0.90 8.25 -0.05z m81.40 -1 c3.85 -1.80 6.25 -4.40 8.50 -9 1.75 -3.65 1.85 -4.15 1.85 -8.65 -0.05 -5.40 -1.05 -8.70 -3.75 -12.25 -2.25 -2.95 -3.75 -4.20 -7.15 -5.85 -3.40 -1.65 -6.55 -1.85 -10.30 -0.75 -2.90 0.90 -6.25 2.95 -6.95 4.30 -0.40 0.70 -1.05 1 -2.25 1 l-1.75 0 -0.10 -9.85 -0.15 -9.90 -3.05 -0.15 c-2.15 -0.10 -3.20 0.05 -3.65 0.55 -0.40 0.55 -0.55 7.30 -0.45 26.15 l0.15 25.45 3.65 0.15 3.60 0.15 0 -2.55 0 -2.50 1.80 0 c1.30 0 2.30 0.45 3.85 1.75 4.60 3.95 10.45 4.65 16.15 1.95z m-483.70 -9.55 l0.15 -10.90 8.50 -0.25 c7.15 -0.25 8.85 -0.45 10.80 -1.30 10.50 -4.80 11.15 -17.90 1.10 -23.30 -3.40 -1.85 -7.15 -2.40 -16.25 -2.40 l-7.90 0 0 24.50 0 24.50 1.75 0 1.75 0 0.10 -10.85z m43.40 -2.90 l0.25 -13.50 1.35 -2.35 1.35 -2.40 -1.50 0 c-1.45 0 -1.45 -0.05 -1.45 -2.75 l0 -2.75 -2 0 -2 0 0 18.40 c0 10.15 0.15 18.60 0.35 18.80 0.20 0.20 1.05 0.30 1.90 0.20 l1.50 -0.15 0.25 -13.50z m27.50 -5 l0 -18.75 -1.75 0 -1.75 0 0 18.75 0 18.75 1.75 0 1.75 0 0 -18.75z m18.60 5.40 c0.15 -14.35 0 -13.35 2.80 -18.75 0.10 -0.25 -0.50 -0.40 -1.35 -0.40 -1.50 0 -1.55 -0.05 -1.55 -2.50 l0 -2.50 -1.75 0 -1.75 0 0 18.75 0 18.75 1.70 0 1.75 0 0.15 -13.35z m29.40 1 c0 -11.40 0.25 -14.35 1.25 -16.75 0.30 -0.75 0.10 -0.90 -1.35 -0.90 -1.35 0 -1.90 -0.30 -2.45 -1.30 -1.80 -3.40 -7.65 -6.80 -11.85 -6.85 -2.65 -0.10 -6.20 1.05 -7.90 2.45 l-1.45 1.20 1.40 -0.50 c0.80 -0.25 3.50 -0.50 6 -0.50 5.45 0 8 0.95 10.15 3.75 2.20 2.90 2.70 6.50 2.70 19.90 l0 11.85 1.75 0 1.75 0 0 -12.35z m29.40 -0.75 c-0.25 -15.30 -0.50 -16.45 -4.65 -20.65 -5.75 -5.75 -14.15 -5.80 -20.25 -0.20 -0.95 0.90 -1.20 1.25 -0.50 0.75 2.80 -1.85 4.45 -2.30 9.15 -2.30 5.60 0 8.30 1.10 10.45 4.25 1.95 2.85 2.40 6.65 2.40 19.90 l0 11.35 1.80 0 1.80 0 -0.20 -13.10z m18.10 9.60 l0 -3.50 1.55 0 c0.85 0 1.45 -0.15 1.35 -0.35 -2.65 -5.35 -2.65 -5.20 -2.60 -11.65 0 -6.15 0.70 -9.30 2.20 -10.25 1 -0.60 0.50 -1.25 -1 -1.25 l-1.50 0 -0.10 -10.60 -0.15 -10.65 -1.75 0 -1.75 0 -0.15 25.25 c-0.05 13.90 0 25.55 0.15 25.90 0.10 0.30 1 0.60 2 0.60 l1.75 0 0 -3.50z m98 -8.90 c0 -13.25 0.40 -16.05 2.55 -18.80 l1 -1.30 -1.75 0 -1.80 0 0 -2.50 0 -2.50 -1.75 0 -1.75 0 0 18.75 0 18.75 1.75 0 1.75 0 0 -12.40z m30 0.80 c0 -12.95 -0.55 -16.75 -2.90 -20.10 -3.20 -4.65 -8.95 -7.25 -13.90 -6.35 -3.20 0.60 -5.75 1.75 -7 3.10 -0.90 1 -0.85 1 0.60 0.20 1 -0.50 2.90 -0.75 6.45 -0.75 5.80 0 8.40 0.90 10.35 3.55 2.35 3.15 2.55 4.45 2.80 18.60 l0.20 13.35 1.70 0 1.70 0 0 -11.60z m21 6.90 c0.85 -2.60 1.90 -4.85 2.30 -5 1.15 -0.45 22.35 -0.35 23 0.10 0.30 0.20 1.20 2.40 2.05 4.85 l1.50 4.50 3.55 0.15 3.60 0.15 -1 -2.65 c-0.60 -1.45 -2.50 -6.70 -4.20 -11.65 -3.75 -10.70 -6.40 -18 -9.90 -27.60 l-2.65 -7.15 -4.30 0 c-2.85 0 -4.50 0.20 -4.80 0.65 -0.30 0.30 -0.95 1.95 -1.55 3.60 -0.55 1.65 -2.85 8.05 -5.10 14.25 -2.20 6.20 -5.35 14.95 -7 19.50 -1.60 4.55 -3.15 8.85 -3.45 9.65 l-0.55 1.35 3.45 0 3.45 0 1.60 -4.70z m125.90 -14.40 l0.10 -18.85 -1.65 -0.30 c-0.90 -0.20 -2.55 -0.25 -3.60 -0.15 l-2 0.15 -0.15 19.15 -0.10 19.15 3.60 -0.15 3.65 -0.15 0.15 -18.85z m-387.80 -15.25 l2.90 -0.30 0 -1.65 c0 -2.45 -1.90 -2.15 -6.35 0.95 -2.65 1.85 -3.35 3.25 -1.05 2.05 0.85 -0.45 2.90 -0.95 4.50 -1.05z m315.35 -13.40 c1.95 -1.70 2.30 -2.85 1.30 -4.75 -1.10 -2.10 -3.50 -3.15 -5.25 -2.25 -3.45 1.80 -4.10 4.60 -1.55 6.85 1.95 1.75 3.55 1.75 5.50 0.15z m70.95 0.45 c1.35 -0.95 2.55 -3.20 2.20 -4.20 -0.35 -1.15 -1.70 -2.50 -3.15 -3.25 -1.65 -0.85 -3.85 0.10 -5.15 2.25 -1.05 1.85 -0.75 3.05 1.25 4.75 1.75 1.45 3.25 1.60 4.85 0.45z m-368.80 -1.55 c1.25 -1.10 1.15 -2.25 -0.35 -3.65 -1.30 -1.20 -1.95 -1.05 -3.60 1 -0.85 1 -0.80 1.15 0.35 2.40 1.25 1.30 2.35 1.40 3.60 0.25z m124.25 -30.75 c0.95 -1.05 14.15 -33.15 14.15 -34.45 0 -0.30 -1.20 -1.95 -2.65 -3.60 -5.80 -6.70 -9.35 -12.80 -13.85 -23.95 -1.20 -3 -2.35 -5.40 -2.50 -5.40 -0.20 0 -1.80 3.75 -3.60 8.40 -1.85 4.60 -6.05 15.35 -9.40 23.85 -8.90 22.65 -14 35.75 -14 36 0 0.15 6.95 0.25 15.40 0.25 15.35 0 15.45 0 16.45 -1.10z m77.65 -25.60 c9.35 -1.25 15.35 -3.45 24.60 -8.95 10.95 -6.50 20.55 -17.35 25.75 -29 7.50 -16.95 6.30 -39.45 -2.95 -55.10 -11.75 -19.80 -32.95 -32.20 -55.20 -32.30 -12.20 -0.05 -23.25 3.50 -34.45 11.05 l-3.75 2.50 0.95 2.40 c2.35 5.90 10.40 26.45 10.70 27.25 0.30 0.80 0.65 0.55 2.40 -1.65 4 -5.10 11.90 -9.50 18.90 -10.60 4.10 -0.65 11.90 -0.20 15.55 0.90 13.65 4.05 22.65 16.50 22.65 31.45 0 7.05 -1.65 12.10 -6.20 18.80 -2.20 3.30 -8.20 8.50 -11.70 10.20 -4.05 2 -9.70 2.90 -15.75 2.60 -15.65 -0.80 -24.05 -7.40 -30.50 -24 -1.45 -3.60 -5.70 -14.45 -9.50 -24.10 -3.80 -9.60 -9.10 -23 -11.75 -29.75 -2.65 -6.75 -5.25 -12.70 -5.80 -13.25 -0.95 -0.95 -1.75 -1 -16.70 -1.15 l-15.70 -0.15 2.15 5.40 c1.20 2.95 4.45 11.35 7.30 18.65 9.50 24.45 24.60 61.70 26.60 65.70 2.10 4.15 3.65 6.45 7.20 10.80 9.90 12.05 24.45 19.95 41.70 22.65 2.80 0.45 8.55 0.30 13.50 -0.35z"/>
  <path d="M302.75 313.35 c-6.45 -2.50 -9.10 -7.75 -8.60 -17.05 0.35 -7.40 2.55 -11.55 7.25 -13.90 2 -1 3.10 -1.15 7.60 -1.15 4.70 0 5.55 0.15 8.05 1.35 3 1.50 5.30 4.20 6.50 7.65 0.95 2.85 0.85 12.35 -0.20 15.15 -1.25 3.35 -3.20 5.45 -6.50 7.10 -2.75 1.35 -3.45 1.50 -7.80 1.45 -2.65 0 -5.50 -0.30 -6.30 -0.60z"/>
  <path d="M474.70 310.30 c-2.40 -1.05 -5 -3.95 -5.90 -6.60 -1.20 -3.60 -1.10 -10.60 0.25 -13.45 1.10 -2.40 3.75 -5 5.80 -5.80 0.65 -0.25 3.15 -0.45 5.50 -0.45 3.65 0 4.60 0.20 6.40 1.25 4.15 2.40 5.75 5.65 5.75 11.70 0 6.90 -1.30 9.65 -5.75 12.50 -2.20 1.40 -2.80 1.55 -6.45 1.55 -2.25 -0.05 -4.75 -0.35 -5.60 -0.70z"/>
  <path d="M548.15 309.95 c-4.70 -2.30 -6.90 -7 -6.55 -13.90 0.25 -4.80 1.75 -8 4.80 -10.25 2.15 -1.50 2.35 -1.55 7.55 -1.55 4.90 0 5.55 0.10 7.20 1.25 3.80 2.55 5.75 7.55 5.15 13.20 -0.65 6.35 -2.20 9.10 -6.45 11.20 -3.05 1.50 -8.70 1.55 -11.70 0.05z"/>
  <path d="M79.70 291.85 c-0.10 -0.35 -0.15 -5.35 -0.10 -11.10 l0.15 -10.50 8.55 0.05 c8.05 0 8.60 0.10 10.70 1.25 2.80 1.55 3.85 3.10 4.50 6.45 1 5.30 -0.80 11.10 -3.95 12.75 -2.15 1.10 -7.20 1.75 -13.70 1.75 -4.30 0 -5.95 -0.15 -6.15 -0.65z"/>
  <path d="M400 299 c0 -1.15 1.15 -5.10 2.65 -9.35 1.50 -4.05 3 -8.45 3.40 -9.75 0.65 -2.30 0.75 -2.40 2.55 -2.40 1.05 0 1.90 0.10 1.90 0.20 0 0.05 0.60 1.70 1.30 3.60 3.10 8.35 5.70 16.55 5.70 18.05 l0 1.65 -8.75 0 -8.75 0 0 -2z"/>
 </g>
 <g fill="#314681">
  <path d="M337.50 213.15 c-22 -3.45 -39.95 -15.75 -48.90 -33.45 -1.95 -3.90 -16.85 -40.60 -26.35 -64.95 -8.90 -22.95 -9.70 -25 -9.85 -26.25 l-0.15 -1.25 17.35 0 c16.70 0 17.40 0.05 18.35 1 0.55 0.55 3.15 6.50 5.80 13.25 2.65 6.75 7.95 20.15 11.75 29.75 3.80 9.65 8.05 20.50 9.50 24.10 4.15 10.65 8.95 16.85 15.80 20.50 8.10 4.25 19.75 4.65 27.45 0.90 3.50 -1.70 9.50 -6.90 11.70 -10.20 5.90 -8.65 7.45 -16.25 5.05 -24.90 -3.65 -13.30 -14.25 -22.25 -27.65 -23.45 -4.60 -0.40 -8.80 0.35 -13.55 2.30 -5.10 2.15 -9.05 5.15 -12.50 9.45 -1.55 1.95 -3 3.55 -3.20 3.55 -0.25 0 -0.70 -0.85 -1.05 -1.90 -0.40 -1 -3.35 -8.55 -6.55 -16.75 -3.60 -9.05 -5.80 -15.30 -5.65 -15.90 0.60 -2.15 12.85 -9.30 19.95 -11.60 15.70 -5.15 34.45 -3.65 49.20 3.95 7.30 3.70 10.60 6 15.70 10.75 9.05 8.50 15.30 19.05 17.75 30 3.35 15.20 2.25 30.75 -3.10 42.80 -5.20 11.65 -14.80 22.50 -25.75 29 -9.25 5.50 -15.25 7.70 -24.60 8.95 -4.85 0.65 -13.55 0.85 -16.50 0.35z"/>
 </g>
 <g fill="#333233">
  <path d="M433.25 336.85 c-0.15 -0.60 -0.25 -2.60 -0.15 -4.35 l0.15 -3.25 2.75 -0.35 c4.80 -0.55 4.50 1.20 4.50 -27.15 0 -22 0.10 -24.70 0.80 -24.95 1.15 -0.45 8.35 -0.35 9.10 0.15 0.55 0.30 0.65 5.45 0.50 26.60 -0.15 26.15 -0.15 26.20 -1.30 28.30 -2 3.75 -7.20 6.10 -13.45 6.15 -2.30 0 -2.65 -0.15 -2.90 -1.15z"/>
  <path d="M255.55 317.35 c-1.75 -0.65 -3.70 -2 -5.40 -3.70 l-2.65 -2.65 0 3.50 0 3.55 -3.35 -0.15 -3.40 -0.15 0 -27.25 0 -27.25 3.25 0 3.25 0 0.15 10.60 0.10 10.60 2.25 -2.40 c3.40 -3.65 7.35 -5.25 12.75 -5.20 6.70 0 11.60 2.45 15.50 7.65 2.90 3.90 3.75 6.80 3.70 13 0 4.20 -0.25 5.85 -1.15 8.30 -3.05 8.15 -9.75 12.75 -18.40 12.65 -2.75 0 -4.70 -0.35 -6.60 -1.10z m12.25 -6.25 c4.45 -2.30 7.20 -7.45 7.20 -13.45 0 -8.85 -5.50 -14.90 -13.50 -14.90 -4.45 0 -7.50 1.25 -10.05 4.15 -2.65 3.05 -3.45 5.05 -3.80 9.40 -0.50 6.65 2.20 12.15 7.35 14.85 2.50 1.30 3.10 1.45 6.75 1.25 2.80 -0.15 4.65 -0.55 6.05 -1.30z"/>
  <path d="M301.25 317.45 c-7.90 -3.20 -12.45 -10.60 -12.45 -20.20 0.05 -5.20 1.25 -8.95 4 -12.80 3.05 -4.20 6.80 -6.35 12.85 -7.40 11.95 -2.10 22.40 5.50 23.85 17.30 1.30 10.30 -4.05 19.70 -13 23.10 -3.80 1.45 -11.65 1.45 -15.25 0z m14.10 -6.45 c5.10 -2.55 7.20 -6.40 7.30 -13.25 0.05 -4.60 -0.65 -7.10 -2.80 -10.15 -4.45 -6.25 -16.10 -6.65 -20.80 -0.70 -3.25 4.15 -4.40 10.45 -2.80 15.85 1.90 6.55 5.95 9.65 12.80 9.70 2.70 0.05 3.80 -0.20 6.30 -1.45z"/>
  <path d="M472.15 317.75 c-5.90 -1.80 -10.30 -6.30 -12.35 -12.60 -1.25 -3.85 -1.20 -11.40 0.15 -15.75 1.15 -3.55 3.80 -7.40 6.75 -9.65 5.75 -4.40 15.80 -4.35 21.55 0.05 1.25 0.95 2.35 1.70 2.50 1.70 0.15 0 0.25 -1 0.25 -2.20 0 -1.55 0.25 -2.30 0.80 -2.50 1.20 -0.45 9.10 -0.35 9.40 0.15 0.15 0.20 0.30 9.50 0.30 20.60 l0.05 20.20 -5.15 0 -5.15 0 -0.25 -2.45 -0.25 -2.45 -2.40 2 c-1.35 1.10 -3.55 2.40 -4.95 2.85 -3 0.95 -8.30 1 -11.25 0.05z m13.10 -9.80 c1.30 -0.85 2.80 -2 3.30 -2.60 2.20 -2.65 3.20 -9.55 1.85 -12.70 -1.95 -4.50 -5.70 -7.15 -10.05 -7.15 -3.40 0 -4.70 0.45 -7 2.45 -6.25 5.50 -4.60 17.60 2.85 20.85 2.80 1.20 6.30 0.90 9.05 -0.85z"/>
  <path d="M550.20 317.50 c-1.40 -0.55 -3.45 -1.80 -4.55 -2.75 -1.15 -0.95 -2.20 -1.75 -2.35 -1.75 -0.15 0 -0.30 1.15 -0.30 2.50 l0 2.55 -5.10 -0.15 -5.15 -0.15 -0.15 -26.95 c-0.05 -19.85 0.05 -27.10 0.45 -27.65 0.45 -0.50 1.75 -0.65 5.15 -0.55 l4.55 0.15 0.25 10 c0.20 8.50 0.35 9.85 0.90 8.85 1.65 -2.90 7.35 -5.10 13.35 -5.10 3.40 0 4.45 0.20 7 1.45 4.70 2.30 7.75 5.60 9.80 10.60 0.95 2.25 1.10 3.70 1.15 8.95 0 6.25 0 6.25 -1.90 10.15 -3.50 7.25 -8.15 10.35 -16.05 10.70 -3.65 0.15 -5 -0.05 -7.05 -0.85z m9.30 -9.80 c3 -2 4.30 -4.05 4.95 -7.95 0.95 -5.35 -0.80 -10.05 -4.80 -12.75 -1.55 -1.05 -2.40 -1.25 -5.70 -1.25 -3.55 0 -4.05 0.15 -6.05 1.55 -4.05 3 -5.75 8.50 -4.20 13.90 2.15 7.35 9.85 10.50 15.80 6.50z"/>
  <path d="M74.50 292 l0 -26 9.40 0 c5.20 0 10.75 0.25 12.40 0.55 5.90 1.10 10.50 4.75 11.90 9.50 2.10 7 0.05 13.65 -5.35 17.30 -3.10 2.05 -6.25 2.70 -14.65 2.80 l-6.95 0.10 -0.10 10.75 -0.10 10.75 -3.25 0.15 -3.30 0.15 0 -26.05z m18.95 -1.55 c4.25 -0.65 5.75 -1.55 7.30 -4.20 1 -1.60 1.30 -2.90 1.30 -4.85 0 -4.50 -1.25 -6.70 -4.80 -8.55 -1.70 -0.85 -2.95 -1 -9 -1.05 l-7 -0.05 -0.15 9 c-0.05 4.90 0 9.25 0.10 9.60 0.35 0.80 7.60 0.90 12.25 0.10z"/>
  <path d="M117.85 317.70 c-0.20 -0.20 -0.35 -9.35 -0.35 -20.30 l0 -19.90 3.50 0 3.50 0 0 2.80 0 2.80 2 -2 c2.35 -2.35 5.35 -3.85 8.65 -4.35 l2.35 -0.35 0 3.45 0 3.50 -3 0.30 c-4 0.35 -6.90 2 -8.50 4.85 -1.25 2.20 -1.25 2.50 -1.50 15.75 l-0.25 13.50 -3 0.15 c-1.70 0.10 -3.20 0 -3.40 -0.20z"/>
  <path d="M145.50 297.75 l0 -20.25 3.25 0 3.25 0 0 19.75 c0 10.85 0.05 19.90 0.15 20.15 0.05 0.20 -1.40 0.40 -3.25 0.50 l-3.40 0.15 0 -20.30z"/>
  <path d="M163.95 317.80 c-0.10 -0.10 -0.15 -9.25 -0.05 -20.25 l0.10 -20.05 3.25 0 3.25 0 0 2.50 c0 1.40 0.15 2.50 0.30 2.50 0.15 0 1.40 -1 2.75 -2.20 2.80 -2.55 5.80 -3.55 10.45 -3.55 5.55 0.05 11.40 3.05 13.45 6.95 0.90 1.65 1.30 1.65 2 -0.05 0.75 -1.80 3.90 -4.40 6.90 -5.80 3.20 -1.45 9.25 -1.50 13.15 -0.10 3.45 1.25 7.35 5.10 8.70 8.50 0.90 2.25 1 4.10 1.20 17.15 l0.20 14.60 -3.30 0 -3.30 0 0 -11.35 c0 -13.25 -0.45 -17.05 -2.40 -19.90 -2.10 -3.10 -5 -4.35 -9.65 -4.15 -4.70 0.20 -7.10 1.65 -9.25 5.55 l-1.45 2.60 -0.15 13.65 -0.15 13.60 -3.25 0 -3.20 0 0 -11.85 c0 -13.40 -0.50 -17 -2.75 -19.90 -2.05 -2.75 -5.05 -3.90 -9.50 -3.65 -4.70 0.20 -7.15 1.80 -9.10 5.85 l-1.40 2.80 -0.15 13.40 -0.15 13.35 -3.15 0 c-1.70 0 -3.25 -0.10 -3.35 -0.20z"/>
  <path d="M339 297.75 l0 -20.25 3.25 0 3.25 0 0 2.50 c0 1.40 0.15 2.50 0.30 2.50 0.15 0 1.40 -0.95 2.70 -2.15 5.30 -4.75 14.80 -5.05 20.60 -0.65 5.60 4.30 6.40 7.45 6.40 25.20 l0 13.15 -3.25 -0.15 -3.20 -0.15 -0.20 -13.25 c-0.20 -14 -0.40 -15.30 -2.75 -18.45 -1.75 -2.35 -4.65 -3.55 -8.75 -3.55 -4.10 0 -6.15 0.85 -8.55 3.50 -2.90 3.25 -3.30 5.50 -3.30 19.60 l0 12.40 -3.25 0 -3.25 0 0 -20.25z"/>
  <path d="M384 317.75 c0 -0.10 0.50 -1.40 1.05 -2.85 0.60 -1.45 2.35 -6.35 4 -10.90 1.60 -4.55 4.75 -13.30 6.95 -19.50 2.25 -6.20 4.55 -12.60 5.10 -14.25 0.60 -1.65 1.25 -3.30 1.55 -3.65 0.30 -0.40 2.25 -0.60 6.30 -0.60 l5.80 0 2.65 7.15 c3.20 8.70 5.70 15.70 10.10 28.10 1.80 5.25 3.90 11.05 4.65 12.90 1 2.60 1.15 3.45 0.65 3.65 -0.35 0.15 -2.85 0.15 -5.55 0.10 l-4.90 -0.15 -1.50 -4.50 c-0.85 -2.45 -1.75 -4.65 -2.05 -4.90 -0.60 -0.40 -19.10 -0.40 -20.15 0 -0.30 0.15 -1.30 2.35 -2.15 4.95 l-1.60 4.70 -5.45 0 c-3 0 -5.45 -0.10 -5.45 -0.25z m32 -18.40 c0 -0.30 -4.45 -13.15 -5.70 -16.55 -0.70 -1.90 -1.30 -3.55 -1.30 -3.60 0 -0.10 -0.20 -0.20 -0.40 -0.20 -0.20 0 -0.70 1.05 -1.05 2.40 -0.40 1.30 -1.90 5.70 -3.40 9.75 -1.45 4.05 -2.65 7.60 -2.65 7.85 0 0.30 2.90 0.50 7.25 0.50 4 0 7.25 -0.05 7.25 -0.15z"/>
  <path d="M512.10 297.40 l0.15 -20.65 3.50 -0.15 c1.95 -0.10 4.25 0 5.15 0.15 l1.60 0.30 -0.10 20.35 -0.15 20.35 -5.15 0.15 -5.10 0.15 0.10 -20.65z"/>
  <path d="M443.70 271.45 c-2.25 -0.65 -3.80 -2.55 -4.05 -5.05 -0.25 -2.60 0.55 -4.25 2.80 -5.75 4.30 -2.90 9.55 0 9.55 5.25 0 2.35 -1.45 4.40 -3.80 5.40 -1.85 0.80 -2.30 0.80 -4.50 0.15z"/>
  <path d="M515.15 271.45 c-2.35 -0.70 -4.15 -3.10 -4.15 -5.55 0 -5.15 5.35 -8.10 9.55 -5.25 3 2 3.80 5.25 1.95 8.20 -1.50 2.45 -4.35 3.50 -7.35 2.60z"/>
  <path d="M146.75 269.90 c-2.65 -1.50 -3.10 -4.95 -0.95 -7.10 2.95 -2.90 7.45 -0.95 7.45 3.30 0 3.40 -3.55 5.45 -6.50 3.80z"/>
 </g>
 <g fill="#d7000f">
  <path d="M240.75 239.05 c-0.15 -0.25 1.95 -6.15 4.70 -13.15 21.65 -55.40 23.80 -60.65 24.50 -60.65 0.35 0 2.10 3.45 4 8 5.50 13 7.75 16.95 14.15 24.40 1.65 1.95 2.90 3.90 2.90 4.55 0 1.65 -13.45 34.85 -14.65 36.20 -1 1.10 -1.05 1.10 -18.15 1.10 -9.95 0 -17.25 -0.20 -17.45 -0.45z"/>
 </g>
</svg>